<svg width="14" height="15" viewBox="0 0 14 15" fill="none" xmlns="http://www.w3.org/2000/svg">
<path d="M12.5033 5.5C13.0079 5.79054 13.417 6.22162 13.6808 6.74068C13.9445 7.25973 14.0516 7.84432 13.9888 8.42316C13.926 9.00199 13.6962 9.55006 13.3273 10.0005C12.9584 10.451 12.4664 10.7844 11.9113 10.96C11.7152 11.8503 11.2208 12.6469 10.5101 13.218C9.79941 13.789 8.91502 14.1002 8.00334 14.1H6.50334C6.37073 14.1 6.24356 14.0473 6.14979 13.9536C6.05602 13.8598 6.00334 13.7326 6.00334 13.6C6.00334 13.4674 6.05602 13.3402 6.14979 13.2464C6.24356 13.1527 6.37073 13.1 6.50334 13.1H8.00334C8.62396 13.1002 9.22937 12.908 9.7362 12.5498C10.243 12.1916 10.6263 11.6851 10.8333 11.1H10.5033C10.3707 11.1 10.2436 11.0473 10.1498 10.9536C10.056 10.8598 10.0033 10.7326 10.0033 10.6V5.6C10.0033 5.46739 10.056 5.34021 10.1498 5.24645C10.2436 5.15268 10.3707 5.1 10.5033 5.1H11.0033C11.1653 5.1 11.3243 5.113 11.4803 5.138C11.3678 4.02889 10.8475 3.00105 10.0204 2.25362C9.19327 1.50619 8.11815 1.09239 7.00334 1.09239C5.88854 1.09239 4.81341 1.50619 3.98629 2.25362C3.15916 3.00105 2.63891 4.02889 2.52634 5.138C2.68408 5.11272 2.84359 5.10001 3.00334 5.1H3.50334C3.63595 5.1 3.76313 5.15268 3.85689 5.24645C3.95066 5.34021 4.00334 5.46739 4.00334 5.6V10.6C4.00334 10.7326 3.95066 10.8598 3.85689 10.9536C3.76313 11.0473 3.63595 11.1 3.50334 11.1H3.00334C2.34232 11.1007 1.69957 10.8831 1.17494 10.481C0.650312 10.0789 0.273186 9.51472 0.102157 8.87621C-0.0688725 8.2377 -0.0242293 7.56058 0.22915 6.95005C0.48253 6.33952 0.930458 5.82977 1.50334 5.5C1.50334 4.04131 2.0828 2.64236 3.11425 1.61091C4.1457 0.579463 5.54465 0 7.00334 0C8.46203 0 9.86098 0.579463 10.8924 1.61091C11.9239 2.64236 12.5033 4.04131 12.5033 5.5ZM3.00334 6.1C2.47291 6.1 1.9642 6.31071 1.58913 6.68579C1.21405 7.06086 1.00334 7.56957 1.00334 8.1C1.00334 8.63043 1.21405 9.13914 1.58913 9.51421C1.9642 9.88929 2.47291 10.1 3.00334 10.1V6.1ZM13.0033 8.1C13.0033 7.56957 12.7926 7.06086 12.4176 6.68579C12.0425 6.31071 11.5338 6.1 11.0033 6.1V10.1C11.5338 10.1 12.0425 9.88929 12.4176 9.51421C12.7926 9.13914 13.0033 8.63043 13.0033 8.1Z" fill="black" fill-opacity="0.33"/>
</svg>
